<?xml version="1.0" encoding="UTF-8" standalone="no"?>
<svg width="75px" height="22px" viewBox="0 0 75 22" version="1.1" xmlns="http://www.w3.org/2000/svg" xmlns:xlink="http://www.w3.org/1999/xlink">
    <!-- Generator: Sketch 45.2 (43514) - http://www.bohemiancoding.com/sketch -->
    <title>Page 1</title>
    <desc>Created with Sketch.</desc>
    <defs></defs>
    <g id="Flow-2" stroke="none" stroke-width="1" fill="none" fill-rule="evenodd">
        <g id="3---Pick-your-Makeover" transform="translate(-1251.000000, -975.000000)" fill="#000000">
            <g id="Group-8" transform="translate(0.000000, 862.000000)">
                <g id="Group-7" transform="translate(0.000000, 87.000000)">
                    <g id="Group-13" transform="translate(100.000000, 14.000000)">
                        <g id="Group-12" transform="translate(924.000000, 12.000000)">
                            <g id="Page-1" transform="translate(227.000000, 0.000000)">
                                <path d="M31.4466,21.3314157 C31.7354571,21.4772196 32.0603143,21.5311412 32.4031714,21.5311412 C33.2877429,21.5311412 33.9738857,21.2589451 34.4251714,20.6955725 C34.8764571,20.1140824 35.2737429,19.314749 35.5806,18.2971412 L37.1693143,13.3367882 L39.1188857,19.0964745 C39.6786,20.7499255 40.5627429,21.5311412 41.7721714,21.5311412 C42.6207429,21.5311412 43.2704571,21.2408275 43.7217429,20.6770235 C44.1734571,20.0778471 44.5707429,19.2780824 44.9131714,18.2971412 L45.5817429,16.407298 L45.5453143,16.2985922 L45.4908857,16.1165529 L45.4548857,15.9349451 L45.4008857,15.7533373 L45.3648857,15.5531804 L45.3284571,15.3720039 L45.2924571,15.1718471 L45.2744571,14.9902392 L45.2384571,14.7900824 L45.2200286,14.5903569 L45.2020286,14.3906314 L45.1844571,14.1904745 L45.1844571,13.990749 L45.1844571,13.7910235 L45.1844571,13.5908667 L45.1844571,13.3730235 L45.1844571,13.173298 L45.2020286,12.9554549 L45.2200286,12.7371804 L45.2384571,12.5189059 L45.2564571,12.3191804 L45.2744571,12.1556902 L45.2924571,12.0103176 L45.3104571,11.8649451 L45.3464571,11.7195725 L45.3648857,11.5742 L45.4008857,11.4469451 L45.4188857,11.3020039 L45.4548857,11.1562 L45.4908857,11.0108275 L45.5273143,10.8835725 L45.5817429,10.7382 L45.6173143,10.5928275 L45.6537429,10.4660039 L45.7081714,10.3206314 L45.7437429,10.1933765 L45.7977429,10.0480039 L45.8521714,9.92074902 L45.9066,9.79349412 L45.9606,9.66623922 L46.0330286,9.52086667 L46.0870286,9.39404314 L46.1410286,9.26678824 L46.2134571,9.13953333 L46.2854571,9.01227843 L46.3394571,8.88502353 L46.4114571,8.75776863 L46.4838857,8.63051373 L46.5738857,8.52180784 L46.6463143,8.39455294 L46.7183143,8.26729804 L46.8087429,8.15816078 L46.8807429,8.03090588 L46.9716,7.9222 L47.0616,7.7949451 L47.1520286,7.68580784 L47.2424571,7.57667059 L47.3324571,7.46753333 L47.4224571,7.35882745 L47.5128857,7.2496902 L47.6217429,7.14098431 L47.7113143,7.04996471 L47.8017429,6.94082745 L47.9101714,6.8316902 L48.0186,6.74110196 L48.1086,6.65008235 L48.2166,6.5409451 L48.3250286,6.45035686 L48.4334571,6.35933725 L48.5418857,6.26874902 L48.6498857,6.19584706 L48.7583143,6.10525882 L48.8847429,6.01423922 L48.9931714,5.94133725 L49.1196,5.85074902 L49.2280286,5.77784706 L49.3544571,5.70537647 L49.4624571,5.63247451 L49.5888857,5.56000392 L49.7148857,5.48710196 L49.8413143,5.41463137 L49.9677429,5.36027843 L50.0946,5.28737647 L50.2206,5.23302353 L50.3290286,5.17823922 C47.7661714,5.41463137 44.2094571,6.26874902 43.4328857,8.81255294 L41.7721714,14.408749 L39.4977429,7.30404314 C39.0464571,5.92321961 38.2338857,5.23302353 37.0788857,5.23302353 C36.0138857,5.23302353 35.2557429,5.92321961 34.8220286,7.30404314 L32.5836,14.4268667 L31.5550286,10.9383569 C31.5186,10.811102 31.4826,10.6657294 31.4466,10.5384745 L31.4466,10.5747098 L31.5550286,10.9383569 L31.4466,10.5747098 L31.4466,21.3314157 Z M23.2690286,21.5859255 C23.1966,21.5859255 23.1246,21.5678078 23.0706,21.5678078 C23.1246,21.5678078 23.1966,21.5859255 23.2690286,21.5859255 L23.2690286,21.5859255 Z M31.4466,10.5384745 L31.4466,10.5747098 L31.3566,10.2477294 L31.3381714,10.2114941 L31.4466,10.5747098 L31.4466,21.3314157 C31.1941714,21.2222784 30.9773143,21.0406706 30.7784571,20.8590627 C30.3096,20.3867098 30.0747429,19.8414549 29.8218857,19.1508275 L29.7318857,18.9148667 L27.0961714,11.8468275 C27.0601714,11.7376902 27.0237429,11.6285529 26.9877429,11.5198471 C26.7168857,10.9021216 26.3560286,10.393102 25.8503143,10.0113373 C25.3630286,9.61188627 24.7857429,9.43027843 24.1176,9.43027843 C23.6663143,9.43027843 23.2510286,9.52086667 22.8901714,9.72059216 L22.8901714,5.25114118 C23.3230286,5.16012157 23.7747429,5.12388627 24.2256,5.12388627 C25.0741714,5.12388627 25.9047429,5.26925882 26.7168857,5.57812157 L26.7348857,5.57812157 L26.7533143,5.57812157 L26.7713143,5.59623922 C26.8433143,5.61435686 26.9157429,5.65059216 26.9877429,5.6687098 L27.0057429,5.68725882 L27.0237429,5.68725882 L27.0421714,5.68725882 L27.0421714,5.70537647 L27.0601714,5.70537647 L27.1321714,5.74161176 L27.1501714,5.74161176 L27.1681714,5.74161176 L27.1866,5.75972941 L27.2046,5.75972941 L27.2586,5.77784706 L27.2586,5.79639608 L27.2766,5.79639608 C28.2691714,6.25063137 29.1177429,6.85023922 29.8218857,7.6314549 L29.8578857,7.6676902 L29.8938857,7.70392549 L29.9303143,7.74059216 L29.9483143,7.77682745 L29.9843143,7.81306275 L30.0203143,7.84929804 L30.0387429,7.88596471 L30.0747429,7.9222 L30.1107429,7.95843529 L30.1107429,7.97655294 L30.1287429,7.99467059 L30.1287429,8.01278824 C30.1467429,8.03090588 30.1827429,8.04902353 30.2011714,8.08525882 L30.2191714,8.12192549 L30.2551714,8.15816078 L30.2731714,8.19439608 L30.3096,8.23106275 L30.3276,8.26729804 L30.3456,8.26729804 L30.3636,8.30353333 L30.3816,8.3402 L30.3996,8.3402 L30.4176,8.37643529 L30.4176,8.39455294 L30.4356,8.43078824 L30.4536,8.43078824 L30.4720286,8.46702353 L30.4900286,8.5036902 L30.5260286,8.53992549 C30.5440286,8.57616078 30.5804571,8.61239608 30.5984571,8.66718039 L30.6164571,8.70341569 L30.6340286,8.70341569 L30.6520286,8.73965098 L30.6704571,8.77631765 L30.6704571,8.79443529 L30.6884571,8.81255294 L30.7064571,8.83067059 L30.7244571,8.86690588 L30.7424571,8.90314118 L30.7604571,8.93937647 L30.7784571,8.95749412 C30.7968857,8.99416078 30.8148857,9.03039608 30.8328857,9.06663137 L30.8508857,9.10329804 C30.9593143,9.30302353 31.0493143,9.50274902 31.1397429,9.70247451 L31.1577429,9.72059216 L31.1577429,9.75725882 C31.2121714,9.86639608 31.2481714,9.95698431 31.2841714,10.0661216 L31.2841714,10.0842392 L31.3021714,10.1204745 L31.3201714,10.1571412 L31.3201714,10.1752588 L31.3381714,10.2114941 L31.3566,10.2658471 C31.3926,10.3568667 31.4106,10.4478863 31.4466,10.5384745 L31.4466,10.5384745 Z M23.0706,21.5678078 C22.9981714,21.5496902 22.9441714,21.5311412 22.8901714,21.5311412 C22.9441714,21.5311412 22.9981714,21.5496902 23.0706,21.5678078 L23.0706,21.5678078 Z M22.8901714,5.25114118 C22.7093143,5.26925882 22.5468857,5.32404314 22.3664571,5.36027843 L22.3664571,10.0661216 C22.5288857,9.92074902 22.7093143,9.81161176 22.8901714,9.72059216 L22.8901714,5.25114118 Z M22.3664571,21.4224353 L22.3664571,21.4224353 C22.4748857,21.4405529 22.5648857,21.4586706 22.6553143,21.4772196 C22.5648857,21.4586706 22.4748857,21.4405529 22.3664571,21.4224353 L22.3664571,21.4224353 Z M22.3664571,16.6980431 L22.3664571,16.6980431 L22.4024571,16.7165922 L22.3664571,16.6980431 Z M22.8901714,21.5311412 C22.8177429,21.5134549 22.7637429,21.5134549 22.7093143,21.4949059 C22.7637429,21.5134549 22.8177429,21.5134549 22.8901714,21.5311412 L22.8901714,21.5311412 Z M22.3664571,5.36027843 L22.3664571,10.0661216 C22.3124571,10.1390235 22.2400286,10.1933765 22.1860286,10.2658471 L22.1860286,5.41463137 C22.2400286,5.39651373 22.3124571,5.37839608 22.3664571,5.36027843 L22.3664571,5.36027843 Z M22.3664571,16.6980431 L22.3664571,16.6980431 L22.3484571,16.6618078 L22.3664571,16.6980431 Z M22.3664571,21.4224353 L22.3664571,21.4224353 C22.3124571,21.4043176 22.2400286,21.3857686 22.1860286,21.367651 C22.2400286,21.3857686 22.3124571,21.4043176 22.3664571,21.4224353 L22.3664571,21.4224353 Z M22.1860286,16.4983176 L22.2220286,16.5526706 L22.1860286,16.4983176 Z M22.1860286,5.41463137 C22.1500286,5.41463137 22.1140286,5.43274902 22.0776,5.43274902 L22.0776,10.3749843 L22.1860286,10.2658471 L22.1860286,5.41463137 Z M22.1860286,21.367651 L22.1860286,21.367651 C22.1500286,21.3495333 22.1140286,21.3495333 22.0776,21.3314157 C22.1140286,21.3495333 22.1500286,21.3495333 22.1860286,21.367651 L22.1860286,21.367651 Z M22.0776,16.407298 L22.0776,16.407298 L22.1320286,16.4439647 L22.0776,16.407298 Z M22.1500286,16.4620824 L22.1860286,16.4983176 L22.1500286,16.4620824 Z M22.0776,5.43274902 L22.0776,10.3749843 C22.0596,10.393102 22.0596,10.4112196 22.0416,10.4478863 L22.0416,5.45086667 L22.0776,5.43274902 Z M22.0776,16.407298 L22.0776,16.407298 L22.0416,16.3529451 L22.0776,16.407298 Z M22.0776,21.3314157 L22.0776,21.3314157 L22.0416,21.313298 L22.0776,21.3314157 Z M22.0416,5.45086667 C21.8431714,5.52376863 21.6623143,5.57812157 21.4638857,5.65059216 L21.4638857,11.4107098 C21.5903143,11.1562 21.7167429,10.9021216 21.8791714,10.6657294 C21.9331714,10.5928275 21.9876,10.5203569 22.0416,10.4478863 L22.0416,5.45086667 Z M22.0416,21.313298 L22.0416,21.313298 C21.8431714,21.2589451 21.6623143,21.1860431 21.4638857,21.1131412 L21.4818857,21.1131412 C21.5358857,21.1498078 21.5903143,21.1679255 21.6443143,21.1860431 L21.6623143,21.1860431 L21.6623143,21.2045922 C21.7887429,21.2408275 21.9151714,21.2770627 22.0416,21.313298 L22.0416,21.313298 Z M21.4638857,15.3901216 L21.4638857,15.3901216 C21.4818857,15.4263569 21.4818857,15.4444745 21.5003143,15.4625922 C21.4818857,15.4444745 21.4818857,15.4263569 21.4638857,15.3901216 L21.4638857,15.3901216 Z M21.4638857,5.65059216 L21.4638857,11.4107098 C21.4638857,11.4469451 21.4458857,11.4650627 21.4278857,11.501298 L21.4278857,5.6687098 L21.4638857,5.65059216 Z M21.4638857,15.3901216 L21.4638857,15.3901216 C21.4638857,15.3720039 21.4458857,15.3534549 21.4458857,15.3172196 C21.4458857,15.3534549 21.4638857,15.3720039 21.4638857,15.3901216 L21.4638857,15.3901216 Z M21.4638857,21.1131412 L21.4638857,21.1131412 L21.4278857,21.0950235 L21.4638857,21.1131412 Z M21.4278857,15.299102 L21.4278857,15.299102 L21.4458857,15.3172196 L21.4278857,15.299102 Z M21.4278857,5.6687098 C21.3734571,5.68725882 21.3194571,5.72349412 21.2474571,5.74161176 L21.2474571,12.0103176 C21.3014571,11.8468275 21.3554571,11.6647882 21.4278857,11.501298 L21.4278857,5.6687098 Z M21.4278857,15.299102 L21.4278857,15.299102 L21.4278857,15.2809843 L21.4278857,15.299102 Z M21.4278857,21.0950235 L21.4278857,21.0950235 L21.4098857,21.0950235 L21.4278857,21.0950235 Z M21.2474571,21.0225529 L21.3014571,21.0406706 L21.3014571,21.0587882 L21.3194571,21.0587882 L21.3374571,21.0587882 L21.2474571,21.0225529 Z M21.2474571,14.7900824 L21.3014571,14.9173373 C21.2834571,14.881102 21.2654571,14.826749 21.2474571,14.7719647 L21.2474571,14.7900824 Z M21.2474571,5.74161176 L21.2474571,12.0103176 C21.1210286,12.4645529 21.0666,12.9187882 21.0666,13.4092588 C21.0666,13.8634941 21.1210286,14.3177294 21.2474571,14.7719647 L21.2474571,14.7900824 L19.0630286,8.52180784 C18.9366,8.17627843 18.8101714,7.84929804 18.6837429,7.55855294 C19.3878857,6.7954549 20.2180286,6.21396471 21.1570286,5.79639608 C21.1930286,5.77784706 21.2294571,5.75972941 21.2474571,5.74161176 L21.2474571,5.74161176 Z M21.2474571,21.0225529 L21.2474571,21.0225529 L21.2294571,21.0225529 L21.1930286,21.0225529 L21.1750286,21.0225529 L21.1750286,21.0044353 L21.2474571,21.0225529 Z M17.7631714,18.0788667 C17.7271714,18.0063961 17.6911714,17.9334941 17.6367429,17.8791412 C17.6911714,17.9334941 17.7271714,18.0063961 17.7631714,18.0788667 L17.7631714,18.0788667 Z M17.5827429,17.7518863 C17.5463143,17.715651 17.5283143,17.661298 17.4923143,17.6065137 C17.5283143,17.661298 17.5463143,17.715651 17.5827429,17.7518863 L17.5827429,17.7518863 Z" id="Fill-1"></path>
                                <path d="M57.0083143,12.1556902 L53.9573143,11.7924745 L53.9573143,14.9535725 L58.9038857,15.5350627 L58.9038857,7.06808235 C58.7590286,6.9227098 58.5966,6.7954549 58.4341714,6.6682 C57.3511714,5.83263137 56.1241714,5.34216078 54.7514571,5.17823922 C54.4810286,5.14200392 54.2101714,5.12388627 53.9573143,5.12388627 L53.9573143,8.90314118 C54.0477429,8.90314118 54.1381714,8.90314118 54.2466,8.92125882 C55.8348857,9.10329804 56.7554571,10.1933765 57.0083143,12.1556902 L57.0083143,12.1556902 Z M53.9573143,21.7494157 C54.3910286,21.731298 54.8418857,21.6583961 55.2751714,21.5315725 C56.6290286,21.1498078 57.2791714,20.2961216 57.3876,19.4415725 C57.4236,19.1145922 57.3691714,18.8061608 57.2247429,18.497298 C57.0803143,18.1698863 56.8454571,17.9153765 56.5746,17.6975333 C56.2857429,17.4973765 55.9793143,17.3520039 55.6544571,17.3338863 C55.2751714,17.297651 54.9863143,17.3701216 54.7514571,17.4430235 C54.4810286,17.5521608 54.2101714,17.6065137 53.9573143,17.6246314 L53.9573143,21.7494157 Z M53.9573143,8.90314118 C52.6938857,8.88502353 51.6644571,9.72059216 50.8887429,11.4288275 L53.9573143,11.7924745 L53.9573143,14.9535725 L50.6718857,14.5722392 C50.4914571,16.2075725 52.1161714,17.7700039 53.9573143,17.6246314 L53.9573143,21.7494157 C51.1051714,21.8223176 48.1446,19.8595725 47.0436,17.9701608 C46.3390286,16.7709451 45.9426,15.4444745 45.8881714,13.8997294 L45.8881714,13.3549059 C45.9066,13.0460431 45.9246,12.7190627 45.9606,12.391651 C46.1230286,10.9383569 46.6283143,9.61188627 47.4588857,8.44890588 C48.3070286,7.28592549 49.3544571,6.4136902 50.6538857,5.81408235 C51.7008857,5.34216078 52.8023143,5.10576863 53.9573143,5.12388627 L53.9573143,8.90314118 Z" id="Fill-3"></path>
                                <path d="M27.1094143,11.8473451 L26.9877,11.5199333 L26.9898429,11.5246784 L26.9962714,11.5402078 L26.9979857,11.5449529 L26.9992714,11.5488353 L27.0001286,11.5501294 L27.0022714,11.5553059 L27.0039857,11.560051 L27.0061286,11.5656588 L27.0082714,11.5704039 L27.0104143,11.5755804 L27.0112714,11.5777373 L27.0121286,11.5807569 L27.0142714,11.5859333 L27.0164143,11.5906784 L27.0202714,11.6010314 L27.0224143,11.6062078 L27.0224143,11.6066392 L27.0241286,11.6113843 L27.0262714,11.6161294 L27.0284143,11.6213059 L27.0301286,11.6264824 L27.0322714,11.6316588 L27.0335571,11.6359725 L27.0339857,11.6368353 L27.0361286,11.6415804 L27.0378429,11.6467569 L27.0399857,11.6519333 L27.0417,11.6571098 L27.0438429,11.6618549 L27.0447,11.6648745 L27.0455571,11.6674627 L27.0472714,11.6722078 L27.0494143,11.6773843 L27.0511286,11.6825608 L27.0532714,11.6873059 L27.0549857,11.6929137 L27.0554143,11.6937765 L27.0567,11.6976588 L27.0588429,11.7028353 L27.0605571,11.7080118 L27.0627,11.7127569 L27.0644143,11.7183647 L27.0661286,11.7231098 L27.0661286,11.7231098 L27.0678429,11.7282863 L27.0699857,11.7334627 L27.0717,11.7386392 L27.0734143,11.7438157 L27.0751286,11.7485608 L27.0768429,11.7520118 L27.0772714,11.7537373 L27.0789857,11.7589137 L27.0807,11.7640902 L27.0824143,11.7692667 L27.0845571,11.7744431 L27.0862714,11.7796196 L27.0867,11.7813451 L27.0879857,11.7843647 L27.0897,11.7899725 L27.0914143,11.7947176 L27.0931286,11.7998941 L27.0952714,11.8050706 L27.0969857,11.8102471 L27.0969857,11.8106784 L27.0987,11.8154235 L27.1004143,11.8206 L27.1021286,11.8257765 L27.1038429,11.8305216 L27.1055571,11.835698 L27.1068429,11.8395804 L27.1072714,11.8408745 L27.1089857,11.846051 L27.1094143,11.8473451 Z M15.9219857,12.4102863 L16.7525571,15.5713843 C16.9689857,16.5346392 17.3118429,17.3883255 17.8171286,18.1699725 L17.8715571,18.2428745 L17.8895571,18.2428745 L17.9255571,18.3153451 L17.9439857,18.3334627 C17.9619857,18.3515804 17.9799857,18.3882471 17.9979857,18.4063647 L18.0159857,18.4426 L18.0159857,18.4607176 L18.0305571,18.4749529 L18.0519857,18.4973843 L18.0879857,18.5336196 L18.0884143,18.5336196 L18.1059857,18.5694235 L18.1064143,18.5694235 L18.1244143,18.6056588 L18.1424143,18.6056588 L18.1784143,18.6604431 L18.1964143,18.6785608 L18.2144143,18.7147961 L18.2328429,18.7329137 L18.2345571,18.7346392 L18.2358429,18.7367961 L18.2358429,18.7367961 L18.2375571,18.7385216 L18.2379857,18.7385216 L18.2392714,18.7406784 L18.2397,18.7406784 L18.2409857,18.7428353 L18.2414143,18.7428353 L18.2427,18.7449922 L18.2444143,18.7475804 L18.2444143,18.7475804 L18.2461286,18.7493059 L18.2478429,18.7518941 L18.2478429,18.7518941 L18.2495571,18.7544824 L18.2495571,18.7544824 L18.2512714,18.7566392 L18.2529857,18.7592275 L18.2529857,18.7592275 L18.2547,18.7618157 L18.2564143,18.7644039 L18.2581286,18.7669922 L18.2581286,18.7669922 L18.2598429,18.769149 L18.2598429,18.769149 L18.2611286,18.7721686 L18.2615571,18.7721686 L18.2628429,18.7743255 L18.2632714,18.7743255 L18.2645571,18.7773451 L18.2649857,18.7773451 L18.2662714,18.7799333 L18.2667,18.7799333 L18.2679857,18.7820902 L18.2684143,18.7820902 L18.2697,18.7846784 L18.2701286,18.7846784 L18.2714143,18.7868353 L18.2718429,18.7868353 L18.2731286,18.7894235 L18.2748429,18.7915804 L18.2765571,18.7937373 L18.2782714,18.7963255 L18.2787,18.7963255 L18.2799857,18.7984824 L18.2799857,18.7984824 L18.2817,18.8002078 L18.2817,18.8002078 L18.2834143,18.8023647 L18.2834143,18.8023647 L18.2851286,18.8036588 L18.2868429,18.8053843 L18.2868429,18.8053843 L18.3408429,18.8601686 L18.3592714,18.8782863 L18.4128429,18.9330706 L18.4128429,18.9511882 L18.4672714,19.0055412 L18.4672714,19.0236588 L18.4672714,19.0236588 L18.4852714,19.0236588 L18.4852714,19.0236588 L18.4869857,19.0253843 L18.4869857,19.0253843 L18.4887,19.0271098 L18.4887,19.0271098 L18.4904143,19.0288353 L18.4921286,19.0309922 L18.4938429,19.0327176 L18.4951286,19.0348745 L18.4955571,19.0348745 L18.4972714,19.0366 L18.4972714,19.0366 L18.4989857,19.0378941 L18.4989857,19.0378941 L18.5007,19.040051 L18.5024143,19.0422078 L18.5037,19.0439333 L18.5041286,19.0439333 L18.5058429,19.0460902 L18.5071286,19.0482471 L18.5075571,19.0482471 L18.5088429,19.0499725 L18.5092714,19.0499725 L18.5105571,19.0521294 L18.5109857,19.0521294 L18.5122714,19.0542863 L18.5127,19.0542863 L18.5139857,19.0560118 L18.5157,19.0581686 L18.5174143,19.0598941 L18.5178429,19.0598941 L18.5191286,19.062051 L18.5208429,19.0642078 L18.5208429,19.0642078 L18.5225571,19.0663647 L18.5225571,19.0663647 L18.5242714,19.0685216 L18.5259857,19.0706784 L18.5259857,19.0706784 L18.5277,19.0728353 L18.5277,19.0728353 L18.5289857,19.0745608 L18.5294143,19.0745608 L18.5311286,19.0767176 L18.5324143,19.0788745 L18.5328429,19.0788745 L18.5345571,19.0810314 L18.5362714,19.0831882 L18.5362714,19.0831882 L18.5375571,19.0853451 L18.5379857,19.0853451 L18.5392714,19.087502 L18.5397,19.087502 L18.5409857,19.0896588 L18.5414143,19.0896588 L18.5427,19.0918157 L18.5444143,19.0935412 L18.5461286,19.0961294 L18.5465571,19.0961294 L18.5478429,19.0982863 L18.5495571,19.1004431 L18.5512714,19.1026 L18.5512714,19.1026 L18.5529857,19.1047569 L18.5534143,19.1047569 L18.5547,19.1069137 L18.5564143,19.1086392 L18.5581286,19.1103647 L18.5581286,19.1103647 L18.5598429,19.1129529 L18.5598429,19.1129529 L18.5615571,19.1151098 L18.5632714,19.1168353 L18.5632714,19.1168353 L18.5649857,19.1189922 L18.5662714,19.121149 L18.5667,19.121149 L18.5684143,19.1233059 L18.5697,19.1254627 L18.5701286,19.1254627 L18.5718429,19.1267569 L18.5735571,19.1289137 L18.5748429,19.1306392 L18.5765571,19.1327961 L18.5782714,19.1349529 L18.5787,19.1349529 L18.5804143,19.1366784 L18.5821286,19.1388353 L18.5834143,19.1405608 L18.5834143,19.1405608 L18.5851286,19.1422863 L18.5868429,19.1444431 L18.5885571,19.1457373 L18.5902714,19.1474627 L18.5919857,19.1491882 L18.5937,19.1509137 L18.6275571,19.1884431 L18.6618429,19.2255412 L18.6961286,19.2622078 L18.7304143,19.2988745 L18.7651286,19.3351098 L18.7998429,19.3713451 L18.8349857,19.4067176 L18.8705571,19.4425216 L18.9057,19.4774627 L18.9412714,19.5124039 L18.9772714,19.5473451 L19.0132714,19.5818549 L19.0492714,19.6159333 L19.0857,19.6495804 L19.1225571,19.6832275 L19.1589857,19.7168745 L19.1962714,19.7496588 L19.2335571,19.7824431 L19.2704143,19.8152275 L19.3081286,19.847149 L19.3458429,19.879502 L19.3839857,19.9109922 L19.4221286,19.9424824 L19.4602714,19.9735412 L19.4988429,20.0050314 L19.5374143,20.0356588 L19.5764143,20.0658549 L19.6154143,20.096051 L19.6548429,20.1258157 L19.6942714,20.1555804 L19.6942714,20.1555804 L19.7341286,20.1849137 L19.7739857,20.2138157 L19.8541286,20.2716196 L19.8541286,20.2716196 L19.8948429,20.2996588 L19.9351286,20.327698 L19.9762714,20.3553059 L20.0174143,20.3833451 L20.0585571,20.4100902 L20.1001286,20.4372667 L20.1417,20.4635804 L20.1832714,20.4903255 L20.2257,20.5162078 L20.2681286,20.5425216 L20.3105571,20.5679725 L20.3105571,20.5679725 L20.3529857,20.5934235 L20.3958429,20.6184431 L20.4391286,20.6434627 L20.4824143,20.668051 L20.5261286,20.6917765 L20.5261286,20.6922078 L20.5694143,20.7163647 L20.5698429,20.7163647 L20.6135571,20.7400902 L20.6577,20.7633843 L20.7022714,20.7866784 L20.7468429,20.8095412 L20.7468429,20.8099725 L20.7914143,20.8324039 L20.8364143,20.8544039 L20.8364143,20.8544039 L20.8814143,20.8768353 L20.8818429,20.8768353 L20.9268429,20.8988353 L20.9727,20.9204039 L20.9727,20.9208353 L21.0185571,20.9419725 L21.0644143,20.9626784 L21.1107,20.9838157 L21.1569857,21.0045216 L21.1749857,21.0045216 L21.1749857,21.0226392 L21.1929857,21.0226392 L21.2294143,21.0226392 L21.2474143,21.0226392 L21.3014143,21.0407569 L21.3014143,21.0593059 L21.3194143,21.0593059 L21.3211286,21.0601686 L21.3228429,21.0606 L21.3245571,21.0614627 L21.3258429,21.0623255 L21.3275571,21.0631882 L21.3292714,21.064051 L21.3309857,21.0644824 L21.3322714,21.0653451 L21.3339857,21.0657765 L21.3352714,21.0666392 L21.3369857,21.0670706 L21.3382714,21.0679333 L21.3395571,21.0679333 L21.3412714,21.0683647 L21.3421286,21.0692275 L21.3438429,21.0696588 L21.3451286,21.0700902 L21.3464143,21.0705216 L21.3477,21.0713843 L21.3494143,21.0718157 L21.3507,21.0722471 L21.3515571,21.0726784 L21.3532714,21.0731098 L21.3545571,21.0735412 L21.3558429,21.0739725 L21.3571286,21.0744039 L21.3584143,21.0748353 L21.3592714,21.0752667 L21.3605571,21.075698 L21.3622714,21.0761294 L21.3635571,21.0769922 L21.3648429,21.0774235 L21.3661286,21.0778549 L21.3674143,21.0778549 L21.3682714,21.0787176 L21.3695571,21.079149 L21.3708429,21.0795804 L21.3721286,21.0800118 L21.3734143,21.0804431 L21.3747,21.0808745 L21.3764143,21.0813059 L21.3772714,21.0817373 L21.3785571,21.0821686 L21.3802714,21.0826 L21.3815571,21.0830314 L21.3828429,21.0834627 L21.3828429,21.0838941 L21.3841286,21.0843255 L21.3854143,21.0847569 L21.3867,21.0851882 L21.3884143,21.0856196 L21.3897,21.086051 L21.3909857,21.0864824 L21.3927,21.0873451 L21.3939857,21.0877765 L21.3952714,21.0882078 L21.3952714,21.0886392 L21.3969857,21.0890706 L21.3982714,21.089502 L21.3982714,21.0899333 L21.3999857,21.0903647 L21.3999857,21.0907961 L21.4017,21.0912275 L21.4034143,21.0920902 L21.4047,21.0925216 L21.4047,21.0929529 L21.4064143,21.0933843 L21.4064143,21.0938157 L21.4081286,21.0942471 L21.4098429,21.0951098 L21.4098429,21.0955412 L21.4638429,21.1136588 L21.4818429,21.1136588 L21.4822714,21.1136588 L21.4844143,21.1153843 L21.4869857,21.1171098 L21.4869857,21.1171098 L21.4895571,21.1188353 L21.4921286,21.1201294 L21.4921286,21.1201294 L21.4947,21.1218549 L21.4968429,21.123149 L21.4972714,21.123149 L21.4998429,21.1248745 L21.4998429,21.1248745 L21.5024143,21.1261686 L21.5024143,21.1261686 L21.5045571,21.1278941 L21.5049857,21.1278941 L21.5075571,21.1291882 L21.5097,21.1304824 L21.5101286,21.1304824 L21.5122714,21.1322078 L21.5122714,21.1322078 L21.5148429,21.133502 L21.5152714,21.133502 L21.5174143,21.1352275 L21.5199857,21.1365216 L21.5199857,21.1365216 L21.5225571,21.1378157 L21.5225571,21.1378157 L21.5251286,21.1391098 L21.5251286,21.1391098 L21.5277,21.1399725 L21.5302714,21.1412667 L21.5328429,21.1425608 L21.5328429,21.1425608 L21.5354143,21.1438549 L21.5379857,21.145149 L21.5379857,21.145149 L21.5405571,21.1464431 L21.5427,21.1477373 L21.5431286,21.1477373 L21.5452714,21.1490314 L21.5478429,21.1498941 L21.5478429,21.1498941 L21.5504143,21.1511882 L21.5529857,21.1524824 L21.5555571,21.1533451 L21.5559857,21.1533451 L21.5581286,21.1546392 L21.5607,21.155502 L21.5632714,21.1567961 L21.5658429,21.1576588 L21.5679857,21.1585216 L21.5684143,21.1585216 L21.5709857,21.1593843 L21.5735571,21.1606784 L21.5757,21.1615412 L21.5782714,21.1628353 L21.5808429,21.163698 L21.5812714,21.163698 L21.5834143,21.1645608 L21.5859857,21.1658549 L21.5859857,21.1658549 L21.5885571,21.1667176 L21.5911286,21.1675804 L21.5937,21.1684431 L21.5962714,21.1697373 L21.5988429,21.1706 L21.5988429,21.1706 L21.6009857,21.1714627 L21.6039857,21.1723255 L21.6065571,21.1731882 L21.6091286,21.174051 L21.6112714,21.1749137 L21.6138429,21.1757765 L21.6164143,21.1762078 L21.6189857,21.1770706 L21.6215571,21.1783647 L21.6241286,21.1792275 L21.6267,21.1796588 L21.6292714,21.1805216 L21.6318429,21.1813843 L21.6344143,21.1822471 L21.6365571,21.1835412 L21.6395571,21.1839725 L21.6417,21.1852667 L21.6442714,21.1861294 L21.6627,21.1861294 L21.6627,21.2046784 L21.7021286,21.218051 L21.7025571,21.218051 L21.7419857,21.2314235 L21.7424143,21.2314235 L21.7818429,21.2447961 L21.7818429,21.2447961 L21.8217,21.2577373 L21.8611286,21.2702471 L21.8615571,21.2702471 L21.9014143,21.2831882 L21.9408429,21.2952667 L21.9408429,21.2952667 L21.9807,21.3073451 L21.9807,21.3073451 L22.0205571,21.3194235 L22.0205571,21.3194235 L22.0604143,21.331502 L22.1002714,21.3427176 L22.1401286,21.3547961 L22.1799857,21.3655804 L22.2198429,21.3763647 L22.2597,21.3875804 L22.2995571,21.3979333 L22.3389857,21.4087176 L22.3394143,21.4087176 L22.3792714,21.4186392 L22.4191286,21.4285608 L22.4191286,21.4285608 L22.4589857,21.4389137 L22.4589857,21.4389137 L22.4992714,21.4479725 L22.5387,21.4578941 L22.5789857,21.4665216 L22.6188429,21.4760118 L22.6587,21.4846392 L22.6591286,21.4846392 L22.6989857,21.4932667 L22.7388429,21.5014627 L22.7392714,21.5014627 L22.7791286,21.5096588 L22.8194143,21.5174235 L22.8592714,21.5256196 L22.8995571,21.5333843 L22.9398429,21.5402863 L22.9398429,21.5402863 L22.9797,21.5476196 L23.0199857,21.5540902 L23.0602714,21.5609922 L23.1005571,21.5678941 L23.1408429,21.5739333 L23.1412714,21.5739333 L23.1811286,21.5799725 L23.2214143,21.5860118 L23.2218429,21.5860118 L23.2621286,21.5911882 L23.3024143,21.5967961 L23.3427,21.6019725 L23.3431286,21.6019725 L23.3834143,21.607149 L23.3838429,21.607149 L23.4241286,21.6114627 L23.4241286,21.6114627 L23.4648429,21.6162078 L23.4648429,21.6162078 L23.5055571,21.6205216 L23.5458429,21.6244039 L23.5462714,21.6244039 L23.5865571,21.6278549 L23.5869857,21.6278549 L23.6272714,21.6317373 L23.6277,21.6317373 L23.6679857,21.6351882 L23.6684143,21.6351882 L23.7091286,21.6386392 L23.7498429,21.6412275 L23.7905571,21.6438157 L23.7909857,21.6438157 L23.8317,21.6464039 L23.8321286,21.6464039 L23.8728429,21.6485608 L23.9135571,21.6507176 L23.9139857,21.6507176 L23.9551286,21.6524431 L23.9958429,21.6541686 L23.9962714,21.6541686 L24.0374143,21.6554627 L24.0374143,21.6554627 L24.0785571,21.6563255 L24.0785571,21.6563255 L24.1197,21.6571882 L24.1197,21.6571882 L24.1612714,21.658051 L24.2024143,21.6584824 L24.2439857,21.6584824 L24.2928429,21.6584824 L24.2932714,21.6584824 L24.3417,21.6576196 L24.3909857,21.6567569 L24.4398429,21.6554627 L24.4398429,21.6554627 L24.4887,21.6541686 L24.4887,21.6541686 L24.5375571,21.6520118 L24.5375571,21.6520118 L24.5864143,21.6498549 L24.6348429,21.6472667 L24.6352714,21.6472667 L24.6832714,21.6442471 L24.6837,21.6442471 L24.7321286,21.6412275 L24.7805571,21.6377765 L24.7805571,21.6377765 L24.8289857,21.6334627 L24.8294143,21.6334627 L24.8774143,21.6295804 L24.9258429,21.6252667 L24.9742714,21.6200902 L24.9747,21.6200902 L25.0227,21.6149137 L25.0227,21.6149137 L25.0711286,21.6093059 L25.1191286,21.603698 L25.1671286,21.5972275 L25.1675571,21.5972275 L25.2155571,21.5907569 L25.2635571,21.5842863 L25.2635571,21.5842863 L25.3115571,21.5769529 L25.3595571,21.5696196 L25.4075571,21.5614235 L25.4555571,21.5532275 L25.5031286,21.5450314 L25.5511286,21.5359725 L25.5991286,21.5273451 L25.6467,21.5178549 L25.6942714,21.5083647 L25.7418429,21.4984431 L25.7422714,21.4984431 L25.7894143,21.4880902 L25.8369857,21.4777373 L25.8849857,21.4665216 L25.9321286,21.4557373 L25.9321286,21.4557373 L25.9797,21.4440902 L25.9797,21.4440902 L26.0272714,21.4320118 L26.0744143,21.4199333 L26.0744143,21.4199333 L26.1219857,21.4078549 L26.1691286,21.3949137 L26.2167,21.3819725 L26.2638429,21.3686 L26.3109857,21.3552275 L26.3581286,21.3409922 L26.4048429,21.3271882 L26.4052714,21.3271882 L26.4524143,21.3129529 L26.4995571,21.2978549 L26.5467,21.2831882 L26.5934143,21.2676588 L26.6401286,21.251698 L26.6872714,21.2361686 L26.7344143,21.2197765 L26.7811286,21.2038157 L26.8278429,21.1869922 L26.8749857,21.1697373 L26.9217,21.1524824 L26.9684143,21.1352275 L27.0151286,21.1171098 L27.0618429,21.0989922 L27.1085571,21.0808745 L27.1548429,21.0618941 L27.2015571,21.0433451 L27.2482714,21.0239333 L27.2949857,21.0045216 C28.2875571,20.5498549 29.1361286,19.9325608 29.8218429,19.1509137 L27.1089857,11.846051 L27.1167,11.8689137 L27.1171286,11.8702078 L27.1248429,11.8943647 L27.1261286,11.8982471 L27.1325571,11.9185216 L27.1445571,11.9569137 L27.1475571,11.9668353 L27.1535571,11.9862471 L27.1552714,11.9909922 L27.1625571,12.015149 L27.1625571,12.0155804 L27.1694143,12.0393059 L27.1711286,12.0449137 L27.1762714,12.0634627 L27.1797,12.0742471 L27.1831286,12.088051 L27.1878429,12.1035804 L27.1899857,12.1122078 L27.1959857,12.1333451 L27.1968429,12.1363647 L27.2028429,12.1605216 L27.2037,12.1626784 L27.2097,12.1851098 L27.2114143,12.1920118 L27.2157,12.2092667 L27.2187,12.2213451 L27.2217,12.2338549 L27.2259857,12.2511098 L27.2277,12.2580118 L27.2332714,12.2804431 L27.2337,12.2821686 L27.2397,12.3067569 L27.2401286,12.3102078 L27.2448429,12.3313451 L27.2469857,12.3395412 L27.2504143,12.355502 L27.2534143,12.3688745 L27.2598429,12.3986392 L27.2611286,12.4042471 L27.2658429,12.4279725 L27.2662714,12.4284039 L27.2709857,12.4529922 L27.2718429,12.4577373 L27.2761286,12.477149 L27.2782714,12.4870706 L27.2808429,12.5017373 L27.2834143,12.5172667 L27.2855571,12.5263255 L27.2889857,12.5466 L27.2898429,12.5504824 L27.2941286,12.5750706 L27.2941286,12.5763647 L27.2984143,12.5996588 L27.2992714,12.6061294 L27.3044143,12.6354627 L27.3061286,12.6484039 L27.3091286,12.6652275 L27.3104143,12.6729922 L27.3134143,12.6949922 L27.3138429,12.6975804 L27.3177,12.7221686 L27.3181286,12.7247569 L27.3211286,12.7463255 L27.3224143,12.7545216 L27.3241286,12.7709137 L27.3262714,12.7838549 L27.3275571,12.795502 L27.3297,12.814051 L27.3305571,12.8200902 L27.3331286,12.8433843 L27.3335571,12.8446784 L27.3365571,12.8688353 L27.3369857,12.873149 L27.3391286,12.8934235 L27.3404143,12.9029137 L27.3417,12.9180118 L27.3429857,12.9326784 L27.3442714,12.9426 L27.3459857,12.9624431 L27.3464143,12.9671882 L27.3485571,12.9917765 L27.3485571,12.9922078 L27.3507,13.0163647 L27.3511286,13.0219725 L27.3528429,13.0409529 L27.3537,13.0517373 L27.3545571,13.0655412 L27.3554143,13.081502 L27.3562714,13.089698 L27.3575571,13.1112667 L27.3579857,13.1147176 L27.3592714,13.1393059 L27.3592714,13.1410314 L27.3605571,13.1634627 L27.3609857,13.1707961 L27.3618429,13.188051 L27.3622714,13.2005608 L27.3627,13.2130706 L27.3635571,13.2307569 L27.3639857,13.2372275 L27.3644143,13.2605216 L27.3644143,13.2618157 L27.3652714,13.2864039 L27.3657,13.2902863 L27.3661286,13.3109922 L27.3661286,13.320051 L27.3665571,13.3355804 L27.3665571,13.3498157 L27.3665571,13.3601686 L27.3669857,13.3795804 L27.3669857,13.3847569 L27.3669857,13.4093451 L27.3669857,13.4391098 L27.3665571,13.4688745 L27.3661286,13.4986392 L27.3657,13.5284039 L27.3644143,13.5581686 L27.3635571,13.5879333 L27.3622714,13.617698 L27.3609857,13.6470314 L27.3592714,13.6767961 L27.3575571,13.7061294 L27.3554143,13.7358941 L27.3532714,13.7652275 L27.3511286,13.7945608 L27.3485571,13.8243255 L27.3459857,13.8536588 L27.3429857,13.8834235 L27.3395571,13.9127569 L27.3365571,13.9420902 L27.3331286,13.9714235 L27.3292714,14.0007569 L27.3254143,14.0300902 L27.3215571,14.0594235 L27.3211286,14.0594235 L27.3172714,14.0887569 L27.3125571,14.1180902 L27.3078429,14.1474235 L27.3031286,14.1767569 L27.2979857,14.2056588 L27.2928429,14.2349922 L27.2872714,14.2643255 L27.2817,14.2936588 L27.2761286,14.3229922 L27.2757,14.3229922 L27.2701286,14.3518941 L27.2637,14.3812275 L27.2572714,14.4101294 L27.2504143,14.4394627 L27.2435571,14.4683647 L27.2435571,14.4683647 L27.2367,14.497698 L27.2294143,14.5266 L27.2221286,14.5559333 L27.2221286,14.5559333 L27.2144143,14.5848353 L27.2144143,14.5848353 L27.2067,14.6141686 L27.2067,14.6141686 L27.1985571,14.6430706 L27.1985571,14.6430706 L27.1904143,14.6719725 L27.1899857,14.6719725 L27.1818429,14.7013059 L27.1732714,14.7302078 L27.1642714,14.7591098 L27.1642714,14.7591098 L27.1552714,14.7880118 L27.1458429,14.8169137 L27.1364143,14.8462471 L27.1269857,14.8755804 L27.1269857,14.8755804 L27.1171286,14.904051 L27.1072714,14.9333843 L27.1068429,14.9333843 L27.0965571,14.9622863 L27.0862714,14.9911882 L27.0755571,15.0200902 L27.0751286,15.0200902 L27.0648429,15.0489922 L27.0537,15.0778941 L27.0532714,15.0778941 L27.0421286,15.1072275 L27.0421286,15.1072275 L27.0305571,15.1361294 L27.0305571,15.1361294 L27.0189857,15.1650314 L27.0189857,15.1650314 L27.0069857,15.1939333 L26.9945571,15.2228353 L26.9825571,15.2521686 L26.9697,15.2806392 L26.9697,15.2806392 L26.9577,15.3095412 L26.9577,15.3095412 L26.9457,15.3384431 L26.9457,15.3384431 L26.9332714,15.3669137 L26.9208429,15.3953843 L26.9084143,15.4234235 L26.9079857,15.4234235 L26.8955571,15.4510314 L26.8822714,15.4790706 L26.8694143,15.5066784 L26.8689857,15.5066784 L26.8557,15.5338549 L26.8419857,15.5610314 L26.8282714,15.5882078 L26.8282714,15.5882078 L26.8145571,15.6153843 L26.8145571,15.6153843 L26.8004143,15.641698 L26.7858429,15.6684431 L26.7712714,15.6947569 L26.7567,15.7206392 L26.7421286,15.7469529 L26.7421286,15.7469529 L26.7271286,15.7728353 L26.7267,15.7728353 L26.7117,15.7982863 L26.7117,15.7982863 L26.6967,15.8237373 L26.6962714,15.8237373 L26.6808429,15.8491882 L26.6649857,15.8742078 L26.6491286,15.8992275 L26.6332714,15.9242471 L26.6169857,15.9488353 L26.6169857,15.9488353 L26.6007,15.9734235 L26.6002714,15.9734235 L26.5839857,15.9980118 L26.5835571,15.9980118 L26.5668429,16.0217373 L26.5501286,16.0458941 L26.5501286,16.0458941 L26.5329857,16.0696196 L26.5329857,16.0696196 L26.5158429,16.0929137 L26.5154143,16.0929137 L26.4982714,16.1166392 L26.4807,16.1403647 L26.4802714,16.1403647 L26.4627,16.1632275 L26.4447,16.1860902 L26.4447,16.1860902 L26.4267,16.2093843 L26.4082714,16.2318157 L26.4082714,16.2318157 L26.3898429,16.2542471 L26.3709857,16.2766784 L26.3521286,16.2991098 L26.3521286,16.2991098 L26.3332714,16.3215412 L26.3328429,16.3215412 L26.3144143,16.3426784 L26.3139857,16.3426784 L26.2947,16.3646784 L26.2754143,16.3866784 L26.2749857,16.3866784 L26.2557,16.4082471 L26.2552714,16.4082471 L26.2355571,16.4293843 L26.2158429,16.4505216 L26.1957,16.4716588 L26.1751286,16.4923647 L26.1545571,16.513502 L26.1545571,16.513502 L26.1339857,16.5342078 L26.1134143,16.5544824 L26.0919857,16.5743255 L26.0919857,16.5743255 L26.0714143,16.5946 L26.0709857,16.5946 L26.0495571,16.6148745 L26.0285571,16.6347176 L26.0281286,16.6347176 L26.0067,16.6545608 L25.9848429,16.6744039 L25.9844143,16.6744039 L25.9629857,16.6938157 L25.9407,16.7132275 L25.9402714,16.7132275 L25.9184143,16.7322078 L25.9184143,16.7322078 L25.8957,16.7516196 L25.8957,16.7516196 L25.8734143,16.7706 L25.8507,16.789149 L25.8502714,16.789149 L25.8275571,16.8068353 L25.8048429,16.8245216 L25.7817,16.8417765 L25.7812714,16.8417765 L25.7581286,16.8586 L25.7581286,16.8586 L25.7345571,16.8754235 L25.7345571,16.8754235 L25.7109857,16.8913843 L25.6874143,16.9077765 L25.6874143,16.9077765 L25.6634143,16.9233059 L25.6634143,16.9233059 L25.6394143,16.9388353 L25.6154143,16.9543647 L25.6154143,16.9543647 L25.5914143,16.9698941 L25.5669857,16.9845608 L25.5425571,16.9987961 L25.5177,17.0130314 L25.4932714,17.0268353 L25.4679857,17.0410706 L25.4679857,17.0410706 L25.4431286,17.0544431 L25.4178429,17.0673843 L25.4178429,17.0673843 L25.3925571,17.0803255 L25.3672714,17.0932667 L25.3672714,17.0932667 L25.3415571,17.1053451 L25.3415571,17.1053451 L25.3158429,17.1169922 L25.3158429,17.1169922 L25.2901286,17.129502 L25.2901286,17.129502 L25.2644143,17.1407176 L25.2639857,17.1407176 L25.2382714,17.1519333 L25.2378429,17.1519333 L25.2117,17.1627176 L25.1855571,17.173502 L25.1589857,17.1838549 L25.1324143,17.1942078 L25.1324143,17.1942078 L25.1058429,17.203698 L25.1054143,17.203698 L25.0788429,17.2136196 L25.0518429,17.2226784 L25.0248429,17.2317373 L24.9974143,17.2403647 L24.9699857,17.2489922 L24.9425571,17.2571882 L24.9147,17.2649529 L24.9147,17.2649529 L24.8868429,17.2727176 L24.8868429,17.2727176 L24.8589857,17.280051 L24.8311286,17.2869529 L24.8307,17.2869529 L24.8028429,17.2938549 L24.7745571,17.3003255 L24.7458429,17.3067961 L24.7171286,17.3124039 L24.6888429,17.3180118 L24.6597,17.3236196 L24.6597,17.3236196 L24.6309857,17.3283647 L24.6305571,17.3283647 L24.6014143,17.3331098 L24.5722714,17.3374235 L24.5427,17.3421686 L24.5135571,17.346051 L24.4839857,17.349502 L24.4539857,17.3529529 L24.4239857,17.3559725 L24.3939857,17.3585608 L24.3639857,17.361149 L24.3335571,17.3633059 L24.3031286,17.3654627 L24.2722714,17.3667569 L24.2418429,17.368051 L24.2109857,17.3689137 L24.1801286,17.3697765 L24.1488429,17.3702078 L24.1175571,17.3702078 C23.4858429,17.3702078 22.9441286,17.1704824 22.4748429,16.7710314 L22.4551286,16.7546392 L22.4529857,16.7529137 L22.4354143,16.7382471 L22.4311286,16.7352275 L22.4157,16.7214235 L22.4097,16.7166784 L22.3964143,16.7050314 L22.3882714,16.6981294 L22.3771286,16.6882078 L22.3672714,16.6795804 L22.3582714,16.6713843 L22.3462714,16.6606 L22.3389857,16.6541294 L22.3252714,16.642051 L22.3205571,16.6373059 L22.3047,16.6226392 L22.3017,16.6196196 L22.2845571,16.6032275 L22.2832714,16.6023647 L22.2648429,16.5846784 L22.2639857,16.5838157 L22.2468429,16.5669922 L22.2438429,16.5644039 L22.2044143,16.5247176 L22.1932714,16.5130706 L22.1847,16.5044431 L22.1752714,16.4949529 L22.1654143,16.4846 L22.1581286,16.4764039 L22.1461286,16.4643255 L22.1405571,16.4578549 L22.1272714,16.4436196 L22.1238429,16.4393059 L22.1084143,16.4224824 L22.1067,16.4203255 L22.0899857,16.4017765 L22.0895571,16.4013451 L22.0732714,16.3823647 L22.0715571,16.3806392 L22.0561286,16.3629529 L22.0531286,16.3590706 L22.0398429,16.3435412 L22.0351286,16.3383647 L22.0235571,16.3241294 L22.0171286,16.3163647 L22.0077,16.3047176 L21.9991286,16.2947961 L21.9914143,16.2853059 L21.9815571,16.2727961 L21.9755571,16.2654627 L21.9644143,16.2507961 L21.9597,16.2451882 L21.9468429,16.2283647 L21.9442714,16.2249137 L21.9301286,16.2059333 L21.9288429,16.2046392 L21.9134143,16.1839333 L21.9129857,16.1830706 L21.8984143,16.1632275 L21.8962714,16.1606392 L21.8834143,16.1429529 L21.8795571,16.1373451 L21.8684143,16.1222471 L21.8632714,16.1144824 L21.8538429,16.1011098 L21.8469857,16.0911882 L21.8392714,16.0795412 L21.8311286,16.0678941 L21.8247,16.0584039 L21.8152714,16.0441686 L21.8105571,16.0368353 L21.7994143,16.0200118 L21.7964143,16.015698 L21.7839857,15.9962863 L21.7822714,15.993698 L21.7685571,15.9721294 L21.7685571,15.971698 L21.7548429,15.949698 L21.7535571,15.9475412 L21.7411286,15.9272667 L21.7385571,15.9233843 L21.7274143,15.9052667 L21.7235571,15.8983647 L21.7141286,15.8828353 L21.7089857,15.8733451 L21.7012714,15.8599725 L21.6944143,15.8487569 L21.6879857,15.8375412 L21.6802714,15.8233059 L21.6751286,15.8146784 L21.6657,15.7978549 L21.6622714,15.7913843 L21.6519857,15.7724039 L21.6494143,15.7680902 L21.6378429,15.7465216 L21.6369857,15.7452275 L21.6249857,15.721502 L21.6245571,15.7206392 L21.6125571,15.6977765 L21.6108429,15.6943255 L21.6005571,15.674051 L21.5975571,15.6684431 L21.5885571,15.6498941 L21.5842714,15.641698 L21.5585571,15.5882078 L21.5534143,15.5774235 L21.5461286,15.5610314 L21.5418429,15.5528353 L21.5332714,15.5338549 L21.5208429,15.5066784 L21.5195571,15.5036588 L21.5088429,15.4790706 L21.5084143,15.4786392 L21.4977,15.4531882 C21.4732714,15.3971098 21.4501286,15.3397373 21.4278429,15.2806392 L19.0629857,8.52189412 C18.9365571,8.17636471 18.8105571,7.84938431 18.6837,7.55863922 C18.4312714,6.99526667 18.1604143,6.52291373 17.8715571,6.14114902 C17.4202714,5.5600902 16.7701286,5.25122745 15.9219857,5.25122745 C14.7125571,5.25122745 13.8099857,6.06867843 13.2682714,7.70401176 L11.3007,13.4818157 L9.71198571,8.52189412 C9.38712857,7.50428627 9.00827143,6.70452157 8.55655714,6.12303137 C8.1057,5.54197255 7.41955714,5.25122745 6.51698571,5.25122745 C5.88527143,5.25122745 5.34355714,5.48718824 4.89227143,5.95997255 C4.44098571,6.43232549 4.0977,7.01338431 3.86327143,7.70401176 L0.180557143,18.3515804 C0.0725571429,18.787698 0.000128571429,19.2781686 0.000128571429,19.7871882 C0.000128571429,20.3682471 0.270985714,20.8043647 0.812271429,21.0951098 C1.33598571,21.4044039 1.9497,21.5678941 2.61784286,21.5678941 C3.06912857,21.5678941 3.46641429,21.3677373 3.80884286,21.0226392 C4.15212857,20.6589922 4.40455714,20.2409922 4.53098571,19.7690706 L6.71541429,12.3736196 L8.95384286,19.4964431 C9.38712857,20.8772667 10.1452714,21.5678941 11.2102714,21.5678941 C12.3837,21.5678941 13.1962714,20.8772667 13.6475571,19.4964431 L15.9219857,12.4102863 Z" id="Fill-5"></path>
                                <path d="M67.2978,17.5337412 L67.2978,21.785349 C67.5142286,21.803898 67.7310857,21.8220157 67.9479429,21.8220157 C69.7530857,21.8220157 71.3053714,21.1680549 72.5872286,19.859702 C74.1935143,18.2429176 74.9876571,16.0442118 74.9876571,13.245898 C74.9876571,12.2464078 74.8072286,11.2654667 74.4468,10.3022118 C74.0855143,9.33938824 73.5798,8.48527059 72.9125143,7.7402902 C72.2619429,6.97719216 71.5038,6.37758431 70.6192286,5.94146667 C69.7350857,5.50534902 68.7965143,5.28750588 67.7850857,5.28750588 C67.6226571,5.28750588 67.4602286,5.30562353 67.2978,5.32374118 L67.2978,9.59389804 L67.3518,9.59389804 C68.3088,9.59389804 69.0669429,10.0114667 69.6086571,10.829349 C70.1679429,11.6472314 70.4388,12.5733882 70.4388,13.5728784 C70.4388,14.2087216 70.3123714,14.8268784 70.0775143,15.4446039 C69.8430857,16.0623294 69.4822286,16.571349 69.0309429,16.952251 C68.5612286,17.3521333 68.0023714,17.5337412 67.3518,17.5337412 L67.2978,17.5337412 Z M64.1748,13.5728784 C64.1748,14.6086039 64.4636571,15.5170745 65.0229429,16.3349569 C65.6006571,17.1342902 66.3416571,17.5337412 67.2978,17.5337412 L67.2978,21.785349 C65.9799429,21.6404078 64.9329429,21.0589176 64.1383714,20.0231922 C63.6690857,21.1499373 62.9653714,21.7309961 62.0268,21.7309961 C61.3050857,21.7309961 60.7269429,21.4950353 60.2936571,21.0408 C59.8423714,20.5865647 59.6255143,20.0050745 59.6255143,19.2963294 L59.6255143,2.5435451 C59.6255143,2.0893098 59.7163714,1.67174118 59.8783714,1.27185882 C60.0588,0.871976471 60.3296571,0.563113725 60.6725143,0.345270588 C61.0158,0.108878431 61.4315143,0.00017254902 61.9003714,0.00017254902 C62.6045143,0.00017254902 63.1642286,0.25425098 63.5790857,0.727035294 C63.9943714,1.21750588 64.2112286,1.81668235 64.2112286,2.5435451 L64.2112286,6.63209412 C65.2578,5.86856471 66.2872286,5.43287843 67.2978,5.32374118 L67.2978,9.59389804 C66.6476571,9.59389804 66.0888,9.79362353 65.6190857,10.1749569 C65.1498,10.5748392 64.7889429,11.0653098 64.5360857,11.6830353 C64.3012286,12.2830745 64.1748,12.9189176 64.1748,13.5728784 L64.1748,13.5728784 Z" id="Fill-7"></path>
                            </g>
                        </g>
                    </g>
                </g>
            </g>
        </g>
    </g>
</svg>